<?xml version="1.0" encoding="utf-8"?>
<!-- Generator: Adobe Illustrator 23.0.1, SVG Export Plug-In . SVG Version: 6.00 Build 0)  -->
<svg version="1.1" xmlns="http://www.w3.org/2000/svg" xmlns:xlink="http://www.w3.org/1999/xlink" x="0px" y="0px" viewBox="0 0 715 550" style="enable-background:new 0 0 715 550;" xml:space="preserve">
    <style type="text/css">
        .st0 {
            fill:#1E5059;
        }

        .st1 {
            fill: #1E5059;
        }

        *{
	background-color: transparent;
	
	}
	
	.gran {
		display: block;
	}
	.mitja {
		display: none;
	}
	.miniatura{
		display: none;
	}
	
	@media only screen and (max-width:300px){
		
		.mitja{
			display: block;
		}
		.gran{
			display: none;
		}
        .miniatura{
        display: none;
        }
	}
	
	@media only screen and (max-width:180px){
		.mitja{
			display: none;
		}
		.miniatura{
			display: block;
		}
        .gran{
        display: none;
        }
	}
	
	}
	
	
    </style>
    <g id="Capa_1" class="gran">
        <g>
            <g>
                <g>
                    <circle class="st0" cx="415.14" cy="136.52" r="26.78" />
                </g>
                <g>
                    <circle class="st0" cx="552.17" cy="109.58" r="26.78" />
                </g>
                <g>
                    <circle class="st0" cx="497.12" cy="191.57" r="26.78" />
                </g>
                <g>
                    <circle class="st0" cx="442.07" cy="274.49" r="26.78" />
                </g>
                <g>
                    <circle class="st0" cx="579.11" cy="245.68" r="26.78" />
                </g>
            </g>
            <g>
                <path class="st0" d="M649.26,119.14c-7.27-22.98-17.92-43.08-31.93-60.31c-14.02-17.23-31.43-30.91-52.2-41.05
				c-20.78-10.13-44.68-15.2-71.7-15.2c-27.04,0-50.93,5.07-71.71,15.2c-20.78,10.14-38.18,23.82-52.2,41.05
				s-24.67,37.34-31.93,60.31c-7.27,22.98-10.9,47.3-10.9,72.97c0,0,0.31,23.15,1.92,34.46c2.24,15.68,6.72,29.12,8.97,38.51
				c5.62,23.44,17.91,43.08,31.93,60.31c14.02,17.23,31.42,30.83,52.2,40.79c3.72,1.78,7.54,3.4,11.46,4.87l-261.8,0.46
				c-24.32,0-46.04-4.9-65.12-14.7c-19.09-9.79-35.23-22.8-48.4-39.02c-13.18-16.22-23.14-34.97-29.9-56.26
				c-6.76-21.28-10.14-43.4-10.14-66.38c0-18.91,2.79-39.02,8.36-60.3c5.57-21.28,14.61-40.97,27.11-59.04
				c12.5-18.06,28.97-33.1,49.42-45.1c20.43-11.99,45.52-17.99,75.25-17.99c18.35,0,35.15,2.75,50.4,8.23
				c1.91,0.69,4.03,0.36,5.61-0.91c3.13-2.53,2.28-7.52-1.51-8.87c-15.98-5.72-34.14-8.58-54.49-8.58
				c-30.75,0-56.93,5.92-78.55,17.74C77.8,32.15,60.22,47.36,46.71,65.93c-13.51,18.59-23.4,39.28-29.65,62.08
				c-6.25,22.8-9.37,45.19-9.37,67.14c0,27.04,4.05,51.94,12.16,74.75c8.11,22.81,19.34,42.4,33.7,58.79
				c14.36,16.39,31.59,29.23,51.7,38.51c20.09,9.29,42.14,13.94,66.13,13.94L495.27,381c2.4,0.08,4.82,0.14,7.27,0.14
				c27.02,0,41.82-4.99,62.6-14.95c20.78-9.96,38.18-23.56,52.2-40.79c14.01-17.23,24.65-37.33,31.93-60.31
				c7.26-22.97,10.9-47.29,10.9-72.97C660.16,166.44,656.52,142.12,649.26,119.14z M638.62,264.07
				c-7.27,21.97-17.57,40.88-30.91,56.76c-13.35,15.88-29.65,28.3-48.91,37.25c-19.26,8.96-41.05,13.43-65.37,13.43
				c-24.32,0-46.11-4.47-65.37-13.43c-19.26-8.95-35.56-21.37-48.91-37.25c-13.35-15.88-23.65-34.79-30.91-56.76
				c-7.27-21.95-11.07-45.94-11.4-71.96c0.34-26.01,4.14-50,11.4-71.96c7.27-21.96,17.57-40.88,30.91-56.76
				c13.35-15.87,29.65-28.29,48.91-37.25c19.26-8.95,41.05-13.43,65.37-13.43c24.32,0,46.11,4.48,65.37,13.43
				c19.26,8.96,35.56,21.37,48.91,37.25c13.34,15.89,23.64,34.8,30.91,56.76c7.26,21.96,11.06,45.95,11.4,71.96
				C649.68,218.14,645.88,242.12,638.62,264.07z" />
                <path class="st0" d="M319.97,440c-0.64-1.65-2.19-2.71-3.96-2.71h-1.79c-1.75,0-3.3,1.05-3.95,2.68l-38.92,97.72
				c-0.52,1.31-0.36,2.79,0.43,3.96c0.79,1.17,2.11,1.86,3.52,1.86h0.18c1.75,0,3.3-1.05,3.95-2.68l12.08-30.36h46.39l11.95,30.35
				c0.64,1.64,2.19,2.69,3.95,2.69h0.2c1.4,0,2.71-0.69,3.51-1.85c0.79-1.16,0.96-2.63,0.45-3.94L319.97,440z M294.93,501.82
				l20.15-51.09l19.47,51.09H294.93z" />
                <path class="st0" d="M520.25,535.87c-0.54-0.26-1.15-0.35-1.75-0.35l-40.68,0.13c-6.15,0-11.68-1.24-16.44-3.69
				c-4.82-2.48-8.96-5.81-12.28-9.9c-3.35-4.12-5.92-8.97-7.65-14.4c-1.75-5.49-2.63-11.29-2.63-17.24c0-4.89,0.74-10.18,2.19-15.72
				c1.43-5.45,3.78-10.57,6.98-15.2c3.15-4.56,7.38-8.41,12.57-11.45c5.1-2.99,11.51-4.51,19.07-4.51c4.95,0,9.51,0.79,13.53,2.36
				c0.04,0.02,0.08,0.03,0.12,0.05c3.5,1.38,6.95-2.06,5.5-5.54c-0.54-1.31-1.6-2.34-2.93-2.83c-4.76-1.76-10.21-2.65-16.23-2.65
				c-8.85,0-16.53,1.75-22.84,5.2c-6.26,3.42-11.42,7.9-15.35,13.29c-3.88,5.34-6.76,11.36-8.55,17.89
				c-1.77,6.45-2.66,12.87-2.66,19.1c0,7.68,1.17,14.87,3.49,21.38c2.33,6.55,5.61,12.26,9.75,17c4.17,4.76,9.25,8.54,15.08,11.24
				c5.85,2.7,12.33,4.07,19.28,4.07h0l40.69-0.04c2.34,0,4.25-1.91,4.25-4.31C522.76,538.13,521.84,536.64,520.25,535.87z" />
                <path class="st0" d="M596.11,451.37c-4.08-5.01-9.2-9.04-15.23-11.99c-6.05-2.95-13.06-4.45-20.85-4.45s-14.81,1.5-20.85,4.44
				c-6.03,2.94-11.16,6.97-15.24,11.99c-4.04,4.97-7.15,10.83-9.23,17.43c-2.06,6.53-3.11,13.52-3.11,20.8l0,0.04
				c0,0.27,0.09,6.55,0.55,9.78c0.47,3.25,1.25,6.13,1.89,8.45c0.23,0.85,0.45,1.64,0.61,2.33c1.44,6.01,4.39,11.61,9.29,17.63
				c4.08,5.02,9.22,9.03,15.25,11.93c6.04,2.9,13.05,4.37,20.84,4.37c7.78,0,14.79-1.47,20.84-4.37
				c6.04-2.89,11.17-6.91,15.25-11.93c4.04-4.97,7.15-10.83,9.23-17.43c2.06-6.53,3.11-13.53,3.11-20.8c0-7.27-1.05-14.27-3.11-20.8
				C603.26,462.2,600.15,456.34,596.11,451.37z M560.02,443.54c6.18,0,11.77,1.14,16.62,3.39c4.84,2.25,9,5.41,12.35,9.4
				c3.38,4.03,6.04,8.92,7.9,14.54c1.88,5.67,2.87,11.97,2.96,18.73c-0.09,6.76-1.09,13.06-2.96,18.73
				c-1.86,5.62-4.52,10.51-7.9,14.54c-3.35,3.99-7.51,7.15-12.35,9.4c-4.84,2.25-10.43,3.39-16.62,3.39
				c-6.18,0-11.77-1.14-16.62-3.39c-4.84-2.25-9-5.41-12.35-9.4c-3.39-4.03-6.04-8.92-7.9-14.54c-1.88-5.67-2.87-11.97-2.96-18.73
				c0.09-6.75,1.09-13.05,2.96-18.73c1.86-5.61,4.52-10.5,7.9-14.53c3.35-3.98,7.51-7.15,12.35-9.4
				C548.25,444.68,553.84,443.54,560.02,443.54z" />
                <path class="st0" d="M293.71,441.13v-0.16c0-2.35-1.9-4.25-4.25-4.25h-68.19c-2.35,0-4.25,1.9-4.25,4.25v0.16
				c0,2.35,1.9,4.25,4.25,4.25h29.78v93.47c0,1.85,1.11,3.6,2.87,4.17c2.92,0.93,5.63-1.24,5.63-4.03v-93.61h29.91
				C291.81,445.37,293.71,443.47,293.71,441.13z" />
                <path class="st0" d="M201.75,436.77h-0.11c-2.35,0-4.25,1.9-4.25,4.25v60.97c0,11.18-2.5,19.7-7.44,25.33
				c-4.84,5.52-12.62,8.32-23.12,8.32c-10.51,0-18.29-2.8-23.12-8.32c-4.94-5.63-7.44-14.16-7.44-25.33v-60.97
				c0-2.02-1.39-3.72-3.34-4.15c-0.37-0.1-0.74-0.15-1.11-0.15H63.15c-2.35,0-4.25,1.9-4.25,4.25v0.16c0,2.35,1.9,4.25,4.25,4.25
				h30.01v93.61c0,2.59,2.33,4.65,5.04,4.18c2.06-0.36,3.48-2.29,3.48-4.38v-93.41h25.99v56.61c0,14.07,3.39,24.72,10.09,31.65
				c6.72,6.96,16.5,10.49,29.08,10.49c12.57,0,22.35-3.53,29.08-10.49c6.7-6.93,10.09-17.58,10.09-31.65v-60.97
				C206,438.67,204.1,436.77,201.75,436.77z" />
                <path class="st0" d="M438.1,534.72h-63.4v-93.71c0-2.35-1.9-4.25-4.25-4.25h-0.59c-2.35,0-4.25,1.9-4.25,4.25v98.12
				c0,2.35,1.9,4.25,4.25,4.25h68.23c2.35,0,4.25-1.9,4.25-4.25v-0.16C442.35,536.62,440.44,534.72,438.1,534.72z" />
            </g>
        </g>
    </g>
    <g id="_x32_" class="mitja">
        <g>
            <path class="st0" d="M336.09,215.33c-0.76-2.39-3.05-4.09-5.37-3.88h-2.28c-0.01,0-0.02,0-0.03,0c-2.39,0-4.53,1.51-5.26,3.61
			l-49.57,124.52l-0.46,1.47l0.02,0.86c0.09,2.94,2.43,5.29,5.31,5.46c0.25,0.03,0.5,0.05,0.74,0.05c2.29,0,4.39-1.39,5.22-3.57
			l15.32-38.29h58.8l15.33,38.32c0.88,2.16,3.15,3.53,5.2,3.5l1.5-0.12l0.75-0.31c1.39-0.57,2.48-1.65,3.06-3.04
			c0.58-1.39,0.58-2.93,0.04-4.25L336.09,215.33z M304.33,293.85l26.22-66.46l23.87,66.36L304.33,293.85z" />
            <path class="st0" d="M705.32,251.87c-2.49-8.18-6.46-15.7-11.82-22.37c-5.25-6.48-12.01-11.8-19.64-15.41
			c-16.89-7.54-36.26-7.54-53.22,0.04c-7.55,3.57-14.31,8.89-19.57,15.39c-5.35,6.66-9.33,14.18-11.8,22.32
			c-2.71,8.62-4.05,17.58-3.99,26.61c0.03,4.14,0.28,8.31,0.77,12.6c0.77,4.71,1.86,9.38,3.19,13.83
			c3.62,12.98,11.51,24.26,22.28,32.18l0.84,0.28c-36.66-0.07-85.52-0.05-85.52-0.05c-7.9,0-15.01-1.59-21.14-4.74
			c-6.2-3.18-11.51-7.46-15.78-12.72c-4.3-5.3-7.61-11.52-9.83-18.51c-2.24-7.06-3.38-14.52-3.38-22.16
			c0-6.29,0.95-13.09,2.81-20.21c1.83-7.01,4.85-13.58,8.97-19.53c4.05-5.86,9.49-10.81,16.15-14.72c6.55-3.85,14.8-5.8,24.51-5.8
			c6.37,0,12.22,1.02,17.39,3.03c0.05,0.02,0.1,0.04,0.16,0.06c4.5,1.77,8.93-2.65,7.07-7.11c-0.7-1.68-2.06-3-3.76-3.63
			c-6.12-2.26-13.13-3.4-20.86-3.4c-11.37,0-21.25,2.25-29.36,6.68c-8.04,4.4-14.68,10.15-19.73,17.09
			c-4.99,6.86-8.69,14.6-10.99,23c-2.27,8.28-3.42,16.54-3.42,24.55c0,9.87,1.51,19.11,4.48,27.48c2.99,8.41,7.21,15.76,12.54,21.84
			c5.37,6.12,11.89,10.98,19.39,14.44c7.52,3.47,15.85,5.24,24.78,5.24h0l119.6-0.05c0.27,0.01,0.55,0.02,0.82,0.02
			c0.28,0,0.56-0.02,0.85-0.02l1.63,0c0.18,0,0.36-0.04,0.53-0.05c8.08-0.36,16.12-2.16,23.68-5.44c7.52-3.56,14.27-8.84,19.57-15.3
			c5.35-6.66,9.33-14.18,11.81-22.35C710.64,287.61,710.64,269.24,705.32,251.87z M694.09,302.29c-2.16,6.76-5.55,12.97-10.04,18.4
			c-4.27,5.03-9.69,9.15-15.6,11.85c-13.46,5.78-28.88,5.78-42.25,0.04c-6-2.75-11.42-6.86-15.65-11.84
			c-4.5-5.48-7.86-11.69-10-18.46c-2.49-7.72-3.77-15.75-3.77-23.85c0.02-8.06,1.29-16.04,3.79-23.73
			c2.13-6.75,5.49-12.95,9.96-18.4c4.25-5.05,9.66-9.16,15.6-11.84c13.45-5.79,28.88-5.79,42.26-0.03
			c6.01,2.72,11.42,6.82,15.64,11.85c4.51,5.43,7.9,11.58,10.07,18.29C699.16,270.17,699.16,286.67,694.09,302.29z" />
            <path class="st0" d="M632.72,265.33c0-4.42-3.6-8.01-8.01-8.01c-4.42,0-8.02,3.6-8.02,8.01c0,4.42,3.6,8.02,8.02,8.02
			C629.13,273.34,632.72,269.75,632.72,265.33z" />
            <path class="st0" d="M668.91,253.27c0-4.42-3.6-8.01-8.02-8.01c-4.42,0-8.01,3.6-8.01,8.01c0,4.42,3.6,8.02,8.01,8.02
			C665.31,261.28,668.91,257.69,668.91,253.27z" />
            <path class="st0" d="M648.83,269.38c-4.42,0-8.01,3.6-8.01,8.01c0,4.42,3.6,8.02,8.01,8.02c4.42,0,8.02-3.6,8.02-8.02
			C656.85,272.97,653.25,269.38,648.83,269.38z" />
            <path class="st0" d="M636.77,293.5c-4.42,0-8.01,3.6-8.01,8.01c0,4.42,3.6,8.02,8.01,8.02c4.42,0,8.02-3.6,8.02-8.02
			C644.79,297.09,641.19,293.5,636.77,293.5z" />
            <path class="st0" d="M672.95,281.44c-4.42,0-8.01,3.6-8.01,8.01c0,4.42,3.6,8.02,8.01,8.02c4.42,0,8.02-3.6,8.02-8.02
			C680.97,285.03,677.37,281.44,672.95,281.44z" />
            <path class="st0" d="M302.65,222.01c3.11-0.01,5.63-2.55,5.61-5.92c-0.16-3.09-2.68-5.58-5.71-5.35h-87.29l-0.88,0.1
			c-2.91,0.66-4.8,3.49-4.36,5.77c0,3.11,2.53,5.63,5.63,5.63l37.37,0v118.95c0,3.12,2.78,5.51,5.64,5.63
			c3.06,0,5.56-2.39,5.71-5.63l0-119.18L302.65,222.01z" />
            <path class="st0" d="M196.06,216.45c0-3.11-2.53-5.63-5.64-5.63c-3.11,0-5.63,2.53-5.63,5.63l0.01,78.03
			c0.78,11.54-2.71,22.93-9.49,31.7c-7.66,7.75-18.29,11.61-29.81,10.74c-10.8,0.89-21.42-3.01-28.74-10.37
			c-7.04-9.15-10.47-20.53-9.65-32.33V216.5c0.04-2.82-2.04-5.25-5.39-5.69H13.63c-3.11,0-5.63,2.53-5.63,5.63
			c0,3.11,2.53,5.63,5.63,5.63h38.01l0,119.37c0.14,3.06,2.65,5.45,5.71,5.45c3.11,0,5.63-2.53,5.63-5.63V222.24h32.69l0.01,71.65
			c-1.19,14.75,3.33,29.17,13.06,40.98c10.03,9.41,23.67,14.25,36.79,13.28c1.16,0.09,2.32,0.12,3.48,0.12
			c12.54,0,24.78-4.81,34.31-13.78c9.38-11.44,13.9-25.86,12.72-40.29V216.45z" />
            <path class="st0" d="M481.56,335.71h-80.22c-0.22,0-0.4-0.18-0.4-0.4V216.85c0-3.33-2.7-6.03-6.03-6.03
			c-3.33,0-6.03,2.7-6.03,6.03v124.34c0,3.33,2.7,6.03,6.03,6.03h86.89l0.02,0.15l0.61-0.21c3.07-0.47,5.19-3.35,4.76-5.82
			C487.2,338.24,484.67,335.71,481.56,335.71z" />
        </g>
    </g>
    <g id="_x33_" class="miniatura">
        <g>
            <path  class="st0" d="M246.02,89.7c4.68-7.41,1.01-17.26-7.38-19.79c-16.47-4.96-33.48-7.28-50.32-6.89c-29.05-1.01-57.83,5.29-83.85,18.49
			c-21.67,11.78-40.77,28.59-55.2,48.58c-14.47,19.83-25.02,41.93-31.35,65.56c-6.42,22.81-9.75,46.41-9.91,70.13
			c-0.25,26.76,4.08,53.16,12.88,78.51c8.14,22.98,20.45,43.89,36.54,62.13c15.4,17.6,34,31.42,55.26,41.09
			c21.44,9.78,45.19,14.92,68.7,14.92c0.58,0,1.16,0,1.73-0.01l335.9-0.35l2.72-0.14c29.73,1.54,59.61-3.67,86.65-15.52
			c21.35-10.1,40.5-25.17,55.4-43.59c15.25-19.01,26.62-40.47,33.8-63.79c15.2-49.92,15.2-102.7,0-152.63l-0.01-0.03
			c-7.17-23.3-18.54-44.75-33.83-63.8c-14.9-18.34-34.01-33.5-55.56-43.98c-48.3-21.43-103.7-21.42-152.29,0.13
			c-21.27,10.35-40.38,25.51-55.3,43.88c-15.35,19-26.72,40.47-33.8,63.75c-7.69,24.74-11.52,50.46-11.38,76.41
			c0.05,11.99,0.72,24.02,2.05,36.38c2.39,13.4,5.51,26.78,9.22,39.58c6.25,23.67,18.05,45.92,33.91,64.13
			c9.9,12.24,21.68,23,34.82,31.84H182.96c-21.45,0.4-42.77-4.42-61.82-13.88c-17.87-9.09-33.35-21.59-45.99-37.1
			c-12.94-16.08-22.57-34.24-28.67-54.03c-6.59-20.81-9.92-42.45-9.88-64.26c0.17-19.89,2.95-39.67,8.28-58.95
			c5.25-20.4,14.03-39.52,26.07-56.82c12.27-17.48,28.55-32.34,46.72-42.77c35.03-17.94,75.89-21.92,113.28-11.43
			C236.71,97.06,242.83,94.76,246.02,89.7L246.02,89.7z M594.96,103.05c17.76,8.05,33.76,20.21,46.23,35.11
			c13.36,16.15,23.33,34.46,29.64,54.51c14.89,45.83,14.89,94.26,0,140.08l-0.03,0.07c-6.28,19.98-16.26,38.3-29.6,54.43
			c-12.47,14.96-28.46,27.12-46.1,35.06c-39.78,17.13-85.38,17.13-124.99,0.06c-17.82-8.02-33.88-20.18-46.39-35.08
			c-13.32-16.21-23.29-34.55-29.65-54.51c-7.27-22.67-11-46.25-11.09-70.03c0.09-23.85,3.82-47.44,11.1-70.12
			c6.35-19.95,16.33-38.29,29.56-54.39c12.65-14.91,28.73-27.09,46.34-35.12c19.9-8.57,41.26-12.85,62.6-12.85
			C553.89,90.27,575.18,94.54,594.96,103.05z" />
            <circle cx="466.88" cy="224.7" r="26.16" class="st0"/>
            <circle cx="572.05" cy="189.82" r="26.16" class="st0"/>
            <circle cx="536.99" cy="259.75" r="26.16" class="st0"/>
            <circle cx="501.94" cy="329.87" r="26.16" class="st0"/>
            <circle cx="607.11" cy="294.81" r="26.16" class="st0"/>
        </g>
    </g>
</svg>
