<svg xmlns="http://www.w3.org/2000/svg" viewBox="0 0 332.22 234.56">
    <defs>
     <style type="text/css">
        .cls-1 {
            fill: #ffeebf;
        }


        *{
	background-color: transparent;
	
	}
	
	.gran {
		display: block;
	}
	.mitja {
		display: none;
	}
	.miniatura{
		display: none;
	}
	
	@media only screen and (max-width:400px){
		
		.mitja{
			display: block;
		}
		.gran{
			display: none;
		}
        .miniatura{
        display: none;
        }
	}
	
	@media only screen and (max-width:200px){
		.mitja{
			display: none;
		}
		.miniatura{
			display: block;
		}
        .gran{
        display: none;
        }
	}
	
	
	
	
    </style>
    </defs>
    <title>logotipnegatiuuu</title>
    <g id="Capa_1" data-name="Capa 1" class="gran">
        <circle class="cls-1" cx="201.63" cy="58.3" r="11.54" />
        <circle class="cls-1" cx="260.69" cy="46.69" r="11.54" />
        <circle class="cls-1" cx="236.96" cy="82.03" r="11.54" />
        <circle class="cls-1" cx="213.24" cy="117.77" r="11.54" />
        <circle class="cls-1" cx="272.3" cy="105.35" r="11.54" />
        <path class="cls-1" d="M434.38,355.08h0a79,79,0,0,0-13.86-26.18,66.65,66.65,0,0,0-22.69-17.85c-9-4.38-19.48-6.61-31.16-6.61s-22.17,2.23-31.16,6.61a66.55,66.55,0,0,0-22.69,17.85A78.59,78.59,0,0,0,299,355.08a104.6,104.6,0,0,0-4.73,31.64c0,.41.14,10.07.84,14.92a103.17,103.17,0,0,0,2.87,12.85c.38,1.38.73,2.67,1,3.8,2.13,8.88,6.54,17.21,13.88,26.23a65.35,65.35,0,0,0,22.7,17.74c.72.34,1.46.68,2.21,1l-109.86.19a60.29,60.29,0,0,1-27.81-6.27,64.18,64.18,0,0,1-20.67-16.66,72.89,72.89,0,0,1-12.79-24.06A93.84,93.84,0,0,1,162.26,388a102.67,102.67,0,0,1,3.59-25.85,79.67,79.67,0,0,1,11.6-25.26,65.73,65.73,0,0,1,21.11-19.27c8.68-5.09,19.5-7.68,32.15-7.68a63.49,63.49,0,0,1,21.52,3.52,3.07,3.07,0,0,0,3-.49,2.81,2.81,0,0,0-.82-4.82,70.51,70.51,0,0,0-23.68-3.73c-13.29,0-24.77,2.6-34.13,7.72A68.74,68.74,0,0,0,173.67,332a83,83,0,0,0-12.87,26.95A110.45,110.45,0,0,0,156.74,388,96.59,96.59,0,0,0,162,420.43,78,78,0,0,0,176.65,446a67.1,67.1,0,0,0,22.47,16.75,68,68,0,0,0,28.75,6.06l139.57-.06c1.2,0,2.2.06,3.16.06,11.62,0,18-2.1,27.22-6.5a65.44,65.44,0,0,0,22.7-17.74,78.9,78.9,0,0,0,13.86-26.19,108.09,108.09,0,0,0,0-63.25Zm-5.68,62.46a73.2,73.2,0,0,1-13.22,24.28,60.09,60.09,0,0,1-20.88,15.9,70.94,70.94,0,0,1-55.86,0,60,60,0,0,1-20.88-15.9,73,73,0,0,1-13.22-24.28,99.63,99.63,0,0,1,0-61.66,73,73,0,0,1,13.22-24.28,60.24,60.24,0,0,1,20.88-15.9,70.82,70.82,0,0,1,55.86,0,60.09,60.09,0,0,1,20.88,15.9,73.3,73.3,0,0,1,13.22,24.28,99.63,99.63,0,0,1,0,61.66Z" transform="translate(-131.3 -304.44)" />
        <path class="cls-1" d="M292.45,493.34a2.4,2.4,0,0,0-2.25-1.54h-.77a2.4,2.4,0,0,0-2.23,1.52l-16.78,42.12a2.42,2.42,0,0,0,2.24,3.3h.08a2.39,2.39,0,0,0,2.23-1.52L280,524.5h19.22l5,12.71a2.38,2.38,0,0,0,2.24,1.53h.08a2.42,2.42,0,0,0,2-1,2.4,2.4,0,0,0,.26-2.23Zm4.91,26.28H282l7.83-19.85Z" transform="translate(-131.3 -304.44)" />
        <path class="cls-1" d="M378.48,534.35a2.29,2.29,0,0,0-1-.21L360,534.2a14.72,14.72,0,0,1-6.83-1.53,15.8,15.8,0,0,1-5.11-4.11,18.18,18.18,0,0,1-3.19-6,23.75,23.75,0,0,1-1.11-7.26,26,26,0,0,1,.93-6.63,20,20,0,0,1,2.92-6.37,16.25,16.25,0,0,1,5.23-4.76,17.27,17.27,0,0,1,13.61-.87,2.38,2.38,0,0,0,2.61-.56,2.33,2.33,0,0,0,.5-2.59,2.78,2.78,0,0,0-1.59-1.53,23,23,0,0,0-17.32,1.13,20.55,20.55,0,0,0-6.81,5.9,24.42,24.42,0,0,0-3.77,7.9,31.59,31.59,0,0,0-1.17,8.38,28,28,0,0,0,1.54,9.41,23.08,23.08,0,0,0,4.31,7.51,19.9,19.9,0,0,0,6.7,5A20.19,20.19,0,0,0,360,539l17.53,0a2.43,2.43,0,0,0,1-4.63Z" transform="translate(-131.3 -304.44)" />
        <path class="cls-1" d="M411.38,498.08h0a20.11,20.11,0,0,0-6.76-5.32,22.68,22.68,0,0,0-18.49,0,19.92,19.92,0,0,0-6.76,5.33,23.09,23.09,0,0,0-4.08,7.7,30.21,30.21,0,0,0-1.37,9.16c0,.11,0,2.84.25,4.29A29,29,0,0,0,375,523c.1.35.19.68.25,1a20.83,20.83,0,0,0,10.89,13.12,22.93,22.93,0,0,0,18.46,0,19.55,19.55,0,0,0,6.78-5.3,23.17,23.17,0,0,0,4.08-7.7,31.14,31.14,0,0,0,0-18.27A23.32,23.32,0,0,0,411.38,498.08Zm-16,36.12a16.19,16.19,0,0,1-6.91-1.41,14.68,14.68,0,0,1-5.13-3.9,18.36,18.36,0,0,1-3.3-6.07A25.56,25.56,0,0,1,380,507a18.36,18.36,0,0,1,3.3-6.07,14.8,14.8,0,0,1,5.13-3.9,17.66,17.66,0,0,1,13.83,0,14.77,14.77,0,0,1,5.13,3.9,18.36,18.36,0,0,1,3.3,6.07,25.75,25.75,0,0,1,0,15.79,18.36,18.36,0,0,1-3.3,6.07,14.77,14.77,0,0,1-5.13,3.9A16.23,16.23,0,0,1,395.37,534.2Z" transform="translate(-131.3 -304.44)" />
        <path class="cls-1" d="M281.17,494V494a2.41,2.41,0,0,0-2.41-2.4H249.37A2.41,2.41,0,0,0,247,494V494a2.41,2.41,0,0,0,2.41,2.41h12.26v39.71a2.45,2.45,0,0,0,1.64,2.35,2.53,2.53,0,0,0,.77.12,2.37,2.37,0,0,0,1.42-.47,2.43,2.43,0,0,0,1-1.94V496.44h12.32A2.41,2.41,0,0,0,281.17,494Z" transform="translate(-131.3 -304.44)" />
        <path class="cls-1" d="M241,491.58h-.05A2.41,2.41,0,0,0,238.5,494v26.27c0,4.68-1,8.22-3.06,10.54s-5.18,3.39-9.53,3.39-7.56-1.14-9.54-3.39-3.06-5.86-3.06-10.54V494a2.39,2.39,0,0,0-1.86-2.35,2.72,2.72,0,0,0-.63-.08h-29.6a2.41,2.41,0,0,0-2.41,2.4V494a2.41,2.41,0,0,0,2.41,2.41h12.36v39.77a2.39,2.39,0,0,0,.86,1.84,2.45,2.45,0,0,0,2,.53,2.48,2.48,0,0,0,2-2.46V496.44h10v23.82c0,6.22,1.52,11,4.51,14s7.37,4.7,12.95,4.7,9.93-1.58,12.94-4.7,4.51-7.82,4.51-14V494A2.41,2.41,0,0,0,241,491.58Z" transform="translate(-131.3 -304.44)" />
        <path class="cls-1" d="M342.82,533.8H316.07V494a2.41,2.41,0,0,0-2.4-2.41h-.26A2.41,2.41,0,0,0,311,494v42.28a2.41,2.41,0,0,0,2.4,2.41h29.41a2.41,2.41,0,0,0,2.41-2.41v-.07A2.41,2.41,0,0,0,342.82,533.8Z" transform="translate(-131.3 -304.44)" />
    </g>
    <g id="Capa_3" data-name="Capa 3" class="miniatura">
        <path class="cls-1" d="M344.67,411.2a26.83,26.83,0,0,0-4.83-8.95,23.16,23.16,0,0,0-7.94-6.15,27.1,27.1,0,0,0-21.76,0,23.35,23.35,0,0,0-7.94,6.15,26.8,26.8,0,0,0-4.82,8.95,35,35,0,0,0-1.63,10.72v0c0,.13.05,3.38.29,5a32.91,32.91,0,0,0,1,4.36c.12.44.24.85.32,1.22a24.33,24.33,0,0,0,10,13.57l-34.73.06a19.72,19.72,0,0,1-9-2,20.92,20.92,0,0,1-6.7-5.31,23.31,23.31,0,0,1-4.16-7.71,29.86,29.86,0,0,1-1.43-9.21,32.67,32.67,0,0,1,1.19-8.38,25.38,25.38,0,0,1,3.79-8.13,21.22,21.22,0,0,1,6.85-6.14,20.56,20.56,0,0,1,10.41-2.43,21.34,21.34,0,0,1,6.06.82,2,2,0,0,0,2.17-.76,1.94,1.94,0,0,0-1.06-3,26.49,26.49,0,0,0-7.17-.92,25.32,25.32,0,0,0-12.08,2.7,24.14,24.14,0,0,0-8.11,6.92,28.34,28.34,0,0,0-4.53,9.32,37.23,37.23,0,0,0-1.42,10,33,33,0,0,0,1.85,11.17,27,27,0,0,0,5.17,8.85,23.69,23.69,0,0,0,8,5.84A24.49,24.49,0,0,0,272.6,450h0l47.58,0,.84,0a25.34,25.34,0,0,0,10.87-2.24,22.76,22.76,0,0,0,7.95-6.12,26.83,26.83,0,0,0,4.83-8.95,36.07,36.07,0,0,0,0-21.44Zm-3.84,20.56a22.7,22.7,0,0,1-4.24,7.67,19.11,19.11,0,0,1-6.64,5,21.09,21.09,0,0,1-8.22,1.78,2.46,2.46,0,0,0-.46-.08H319a20.29,20.29,0,0,1-6.87-1.71,19.06,19.06,0,0,1-6.65-5,22.87,22.87,0,0,1-4.24-7.67,31.43,31.43,0,0,1,0-19.68,23.07,23.07,0,0,1,4.24-7.67,19.06,19.06,0,0,1,6.65-5,23.15,23.15,0,0,1,17.85,0,19.11,19.11,0,0,1,6.64,5,22.89,22.89,0,0,1,4.24,7.67,31.24,31.24,0,0,1,0,19.68Z" transform="translate(-131.3 -304.44)" />
        <path class="cls-1" d="M315.62,416.13a3.75,3.75,0,1,0-3.74,3.69A3.72,3.72,0,0,0,315.62,416.13Z" transform="translate(-131.3 -304.44)" />
        <path class="cls-1" d="M330.85,411.14a3.75,3.75,0,1,0-3.74,3.68A3.72,3.72,0,0,0,330.85,411.14Z" transform="translate(-131.3 -304.44)" />
        <path class="cls-1" d="M322,417.44a3.69,3.69,0,1,0,3.74,3.69A3.72,3.72,0,0,0,322,417.44Z" transform="translate(-131.3 -304.44)" />
        <path class="cls-1" d="M317,427.43a3.68,3.68,0,1,0,3.75,3.68A3.72,3.72,0,0,0,317,427.43Z" transform="translate(-131.3 -304.44)" />
        <path class="cls-1" d="M332.18,422.43a3.69,3.69,0,1,0,3.75,3.69A3.72,3.72,0,0,0,332.18,422.43Z" transform="translate(-131.3 -304.44)" />
    </g>
    <g id="Capa_2" data-name="Capa 2" class="mitja">
        <path class="cls-1" d="M286.72,391.33a2.56,2.56,0,0,0-2.55-1.84h-1.09a2.64,2.64,0,0,0-2.49,1.71l-23.48,59-.22.7v.41a2.67,2.67,0,0,0,2.51,2.58l.35,0a2.65,2.65,0,0,0,2.48-1.69l7.25-18.14h27.86l7.26,18.15a2.73,2.73,0,0,0,2.46,1.66l.71-.06.36-.14a2.67,2.67,0,0,0,1.47-3.45Zm-15,37.19L284.1,397l11.3,31.43Z" transform="translate(-131.3 -304.44)" />
        <path class="cls-1" d="M461.63,408.64A31.42,31.42,0,0,0,456,398a26.73,26.73,0,0,0-9.31-7.3,30.93,30.93,0,0,0-25.21,0,26.58,26.58,0,0,0-9.27,7.29,31.35,31.35,0,0,0-5.59,10.57,41.19,41.19,0,0,0-1.89,12.61,52.81,52.81,0,0,0,.37,6,50.44,50.44,0,0,0,1.51,6.56A28.39,28.39,0,0,0,417.19,449l.4.13c-17.37,0-40.52,0-40.52,0a21.7,21.7,0,0,1-10-2.25,23,23,0,0,1-7.47-6,26.53,26.53,0,0,1-4.66-8.77,34.75,34.75,0,0,1-1.6-10.5,38.2,38.2,0,0,1,1.33-9.57,29.25,29.25,0,0,1,4.25-9.25,23.86,23.86,0,0,1,7.65-7,25.33,25.33,0,0,1,19.85-1.31l.07,0a2.57,2.57,0,0,0,3.35-3.37,3.11,3.11,0,0,0-1.78-1.72A31.69,31.69,0,0,0,364.26,391a27.93,27.93,0,0,0-9.34,8.09,33.42,33.42,0,0,0-5.21,10.89,44.35,44.35,0,0,0-1.62,11.63,39,39,0,0,0,2.12,13,31.77,31.77,0,0,0,5.94,10.35,27.38,27.38,0,0,0,20.92,9.32h0l56.65,0h1.56a1.9,1.9,0,0,0,.25,0,31.79,31.79,0,0,0,11.22-2.57,27.07,27.07,0,0,0,9.27-7.25,31.47,31.47,0,0,0,5.6-10.59A42.78,42.78,0,0,0,461.63,408.64Zm-5.32,23.88a26.27,26.27,0,0,1-4.75,8.72,21.58,21.58,0,0,1-7.4,5.61,25.47,25.47,0,0,1-20,0,21.55,21.55,0,0,1-7.41-5.61,26.12,26.12,0,0,1-4.74-8.75,37.07,37.07,0,0,1-1.79-11.29A36.52,36.52,0,0,1,412,410a26,26,0,0,1,4.71-8.71,21.21,21.21,0,0,1,7.39-5.61,25.49,25.49,0,0,1,20,0,21.12,21.12,0,0,1,7.41,5.62,26.06,26.06,0,0,1,4.77,8.66A36.4,36.4,0,0,1,456.31,432.52Z" transform="translate(-131.3 -304.44)" />
        <path class="cls-1" d="M427.24,415a3.8,3.8,0,1,0-3.8,3.8A3.8,3.8,0,0,0,427.24,415Z" transform="translate(-131.3 -304.44)" />
        <path class="cls-1" d="M444.38,409.3a3.8,3.8,0,1,0-3.8,3.79A3.8,3.8,0,0,0,444.38,409.3Z" transform="translate(-131.3 -304.44)" />
        <path class="cls-1" d="M434.87,416.93a3.8,3.8,0,1,0,3.8,3.79A3.8,3.8,0,0,0,434.87,416.93Z" transform="translate(-131.3 -304.44)" />
        <path class="cls-1" d="M429.16,428.35a3.8,3.8,0,1,0,3.79,3.8A3.8,3.8,0,0,0,429.16,428.35Z" transform="translate(-131.3 -304.44)" />
        <path class="cls-1" d="M446.3,422.64a3.8,3.8,0,1,0,3.79,3.8A3.8,3.8,0,0,0,446.3,422.64Z" transform="translate(-131.3 -304.44)" />
        <path class="cls-1" d="M270.88,394.49a2.7,2.7,0,0,0,2.65-2.81,2.59,2.59,0,0,0-2.7-2.53H229.48l-.42.05a2.57,2.57,0,0,0-2.06,2.73,2.68,2.68,0,0,0,2.67,2.67h17.7V451a2.79,2.79,0,0,0,2.68,2.66,2.71,2.71,0,0,0,2.7-2.66V394.49Z" transform="translate(-131.3 -304.44)" />
        <path class="cls-1" d="M220.39,391.86a2.67,2.67,0,1,0-5.34,0v37a22.17,22.17,0,0,1-4.5,15,17.67,17.67,0,0,1-14.12,5.09A17.27,17.27,0,0,1,182.82,444a22.39,22.39,0,0,1-4.57-15.32V391.88a2.72,2.72,0,0,0-2.56-2.69H134a2.67,2.67,0,1,0,0,5.33h18v56.55a2.71,2.71,0,0,0,2.71,2.58,2.67,2.67,0,0,0,2.67-2.67V394.6h15.48v33.94A26.9,26.9,0,0,0,179,448a23.32,23.32,0,0,0,17.43,6.29q.82.06,1.65.06a23.67,23.67,0,0,0,16.25-6.53,26.73,26.73,0,0,0,6-19.09Z" transform="translate(-131.3 -304.44)" />
        <path class="cls-1" d="M353.45,448.35H318.72a.19.19,0,0,1-.19-.19V392a2.86,2.86,0,0,0-5.71,0V451a2.86,2.86,0,0,0,2.86,2.85h37.88v.07l.29-.09a2.6,2.6,0,0,0,2.26-2.76A2.68,2.68,0,0,0,353.45,448.35Z" transform="translate(-131.3 -304.44)" />
    </g>
</svg>
