<svg id="Capa_3" data-name="Capa 3" xmlns="http://www.w3.org/2000/svg" viewBox="0 0 413.47 330.98">
    <defs>
        <style>
            .cls-1 {
                fill: #1e5059;
            }

            .cls-2,
            .cls-3,
            .cls-4 {
                fill: none;
                stroke: #555454;
                stroke-miterlimit: 10;
            }

            .cls-3 {
                stroke-dasharray: 5.17 5.17;
            }

            .cls-4 {
                stroke-dasharray: 13.46 13.46;
            }

        </style>
    </defs>
    <title>minireticula</title>
    <circle class="cls-1" cx="248.78" cy="41.74" r="40.86" />
    <circle class="cls-1" cx="372.23" cy="163.23" r="40.86" />
    <path class="cls-1" d="M545.84,363.89a78.55,78.55,0,0,0-14.12-26.21,68.17,68.17,0,0,0-23.25-18c-9.22-4.42-19.94-6.67-31.85-6.67s-22.63,2.25-31.85,6.67a68,68,0,0,0-23.25,18,78.2,78.2,0,0,0-14.12,26.21,102.5,102.5,0,0,0-4.77,31.38v0c0,.41.14,9.91.85,14.78a101.13,101.13,0,0,0,2.89,12.75c.37,1.31.7,2.51,1,3.57,2.2,9,6.7,17.41,14.19,26.45a65.43,65.43,0,0,0,15,13.3l-101.69.14a57.76,57.76,0,0,1-26.3-5.81,60.73,60.73,0,0,1-19.61-15.55,68,68,0,0,1-12.19-22.58,87.31,87.31,0,0,1-4.18-26.93A95.74,95.74,0,0,1,276,370.88a74.76,74.76,0,0,1,11.1-23.79,62.26,62.26,0,0,1,20.07-18c8.17-4.71,18.42-7.1,30.46-7.1a62.66,62.66,0,0,1,17.73,2.4,5.79,5.79,0,0,0,6.38-2.23,5.67,5.67,0,0,0-3.13-8.71,77.15,77.15,0,0,0-21-2.69c-13.71,0-25.61,2.66-35.36,7.9a71,71,0,0,0-23.75,20.24,83.37,83.37,0,0,0-13.26,27.3,109.06,109.06,0,0,0-4.14,29.23,96.09,96.09,0,0,0,5.41,32.68A79.14,79.14,0,0,0,281.69,454,69.55,69.55,0,0,0,305,471.12a71.6,71.6,0,0,0,29.83,6.2h0l139.31-.06c.82,0,1.63.06,2.46.06,11.9,0,22.61-2.21,31.83-6.56a66.8,66.8,0,0,0,23.27-17.9,78.55,78.55,0,0,0,14.12-26.21,105.6,105.6,0,0,0,0-62.76Zm-11.22,60.2a67.41,67.41,0,0,1-12.41,22.45,55.91,55.91,0,0,1-19.46,14.56,61.22,61.22,0,0,1-24.05,5.21,7.11,7.11,0,0,0-1.36-.21H470.6a59.34,59.34,0,0,1-20.11-5A56,56,0,0,1,431,446.54a67.24,67.24,0,0,1-12.41-22.45,91.82,91.82,0,0,1,0-57.64A67.34,67.34,0,0,1,431,344a56.07,56.07,0,0,1,19.46-14.56,67.53,67.53,0,0,1,52.26,0A55.91,55.91,0,0,1,522.2,344a67.36,67.36,0,0,1,12.42,22.45,91.82,91.82,0,0,1,0,57.64Z" transform="translate(-219.51 -230.12)" />
    <path class="cls-1" d="M460.81,378.32a11,11,0,1,0-11,10.79A10.89,10.89,0,0,0,460.81,378.32Z" transform="translate(-219.51 -230.12)" />
    <path class="cls-1" d="M505.39,363.71a11,11,0,1,0-11,10.78A10.89,10.89,0,0,0,505.39,363.71Z" transform="translate(-219.51 -230.12)" />
    <path class="cls-1" d="M479.57,382.16a10.79,10.79,0,1,0,11,10.78A10.88,10.88,0,0,0,479.57,382.16Z" transform="translate(-219.51 -230.12)" />
    <path class="cls-1" d="M464.71,411.39a10.79,10.79,0,1,0,11,10.78A10.88,10.88,0,0,0,464.71,411.39Z" transform="translate(-219.51 -230.12)" />
    <path class="cls-1" d="M509.29,396.77a10.79,10.79,0,1,0,11,10.79A10.89,10.89,0,0,0,509.29,396.77Z" transform="translate(-219.51 -230.12)" />
    <polyline class="cls-2" points="0.5 3 0.5 0.5 3 0.5" />
    <line class="cls-3" x1="8.17" y1="0.5" x2="77.91" y2="0.5" />
    <polyline class="cls-2" points="80.5 0.5 83 0.5 83 3" />
    <line class="cls-3" x1="82.99" y1="8.17" x2="82.99" y2="77.91" />
    <polyline class="cls-2" points="83 80.5 83 83 80.5 83" />
    <line class="cls-3" x1="75.33" y1="82.99" x2="5.58" y2="82.99" />
    <polyline class="cls-2" points="3 83 0.5 83 0.5 80.5" />
    <line class="cls-3" x1="0.5" y1="75.33" x2="0.5" y2="5.58" />
    <polyline class="cls-2" points="83 3 83 0.5 85.5 0.5" />
    <line class="cls-3" x1="90.66" y1="0.5" x2="160.41" y2="0.5" />
    <polyline class="cls-2" points="162.99 0.5 165.49 0.5 165.49 3" />
    <line class="cls-3" x1="165.49" y1="8.17" x2="165.49" y2="77.91" />
    <polyline class="cls-2" points="165.49 80.5 165.49 83 162.99 83" />
    <line class="cls-3" x1="157.82" y1="82.99" x2="88.08" y2="82.99" />
    <polyline class="cls-2" points="85.5 83 83 83 83 80.5" />
    <line class="cls-3" x1="82.99" y1="75.33" x2="82.99" y2="5.58" />
    <polyline class="cls-2" points="165.49 3 165.49 0.5 167.99 0.5" />
    <line class="cls-3" x1="173.16" y1="0.5" x2="242.9" y2="0.5" />
    <polyline class="cls-2" points="245.48 0.5 247.98 0.5 247.98 3" />
    <line class="cls-3" x1="247.98" y1="8.17" x2="247.98" y2="77.91" />
    <polyline class="cls-2" points="247.98 80.5 247.98 83 245.48 83" />
    <line class="cls-3" x1="240.32" y1="82.99" x2="170.57" y2="82.99" />
    <polyline class="cls-2" points="167.99 83 165.49 83 165.49 80.5" />
    <line class="cls-3" x1="165.49" y1="75.33" x2="165.49" y2="5.58" />
    <polyline class="cls-2" points="247.98 3 247.98 0.5 250.48 0.5" />
    <line class="cls-3" x1="255.65" y1="0.5" x2="325.39" y2="0.5" />
    <polyline class="cls-2" points="327.98 0.5 330.48 0.5 330.48 3" />
    <line class="cls-3" x1="330.48" y1="8.17" x2="330.48" y2="77.91" />
    <polyline class="cls-2" points="330.48 80.5 330.48 83 327.98 83" />
    <line class="cls-3" x1="322.81" y1="82.99" x2="253.07" y2="82.99" />
    <polyline class="cls-2" points="250.48 83 247.98 83 247.98 80.5" />
    <line class="cls-3" x1="247.98" y1="75.33" x2="247.98" y2="5.58" />
    <polyline class="cls-2" points="330.48 3 330.48 0.5 332.98 0.5" />
    <line class="cls-3" x1="338.14" y1="0.5" x2="407.89" y2="0.5" />
    <polyline class="cls-2" points="410.47 0.5 412.97 0.5 412.97 3" />
    <line class="cls-3" x1="412.97" y1="8.17" x2="412.97" y2="77.91" />
    <polyline class="cls-2" points="412.97 80.5 412.97 83 410.47 83" />
    <line class="cls-3" x1="405.31" y1="82.99" x2="335.56" y2="82.99" />
    <polyline class="cls-2" points="332.98 83 330.48 83 330.48 80.5" />
    <line class="cls-3" x1="330.48" y1="75.33" x2="330.48" y2="5.58" />
    <polyline class="cls-2" points="0.5 85.5 0.5 83 3 83" />
    <line class="cls-3" x1="8.17" y1="82.99" x2="77.91" y2="82.99" />
    <polyline class="cls-2" points="80.5 83 83 83 83 85.5" />
    <line class="cls-3" x1="82.99" y1="90.66" x2="82.99" y2="160.41" />
    <polyline class="cls-2" points="83 162.99 83 165.49 80.5 165.49" />
    <line class="cls-3" x1="75.33" y1="165.49" x2="5.58" y2="165.49" />
    <polyline class="cls-2" points="3 165.49 0.5 165.49 0.5 162.99" />
    <line class="cls-3" x1="0.5" y1="157.82" x2="0.5" y2="88.08" />
    <polyline class="cls-2" points="83 85.5 83 83 85.5 83" />
    <line class="cls-3" x1="90.66" y1="82.99" x2="160.41" y2="82.99" />
    <polyline class="cls-2" points="162.99 83 165.49 83 165.49 85.5" />
    <line class="cls-3" x1="165.49" y1="90.66" x2="165.49" y2="160.41" />
    <polyline class="cls-2" points="165.49 162.99 165.49 165.49 162.99 165.49" />
    <line class="cls-3" x1="157.82" y1="165.49" x2="88.08" y2="165.49" />
    <polyline class="cls-2" points="85.5 165.49 83 165.49 83 162.99" />
    <line class="cls-3" x1="82.99" y1="157.82" x2="82.99" y2="88.08" />
    <polyline class="cls-2" points="165.49 85.5 165.49 83 167.99 83" />
    <line class="cls-3" x1="173.16" y1="82.99" x2="242.9" y2="82.99" />
    <polyline class="cls-2" points="245.48 83 247.98 83 247.98 85.5" />
    <line class="cls-3" x1="247.98" y1="90.66" x2="247.98" y2="160.41" />
    <polyline class="cls-2" points="247.98 162.99 247.98 165.49 245.48 165.49" />
    <line class="cls-3" x1="240.32" y1="165.49" x2="170.57" y2="165.49" />
    <polyline class="cls-2" points="167.99 165.49 165.49 165.49 165.49 162.99" />
    <line class="cls-3" x1="165.49" y1="157.82" x2="165.49" y2="88.08" />
    <polyline class="cls-2" points="247.98 85.5 247.98 83 250.48 83" />
    <line class="cls-3" x1="255.65" y1="82.99" x2="325.39" y2="82.99" />
    <polyline class="cls-2" points="327.98 83 330.48 83 330.48 85.5" />
    <line class="cls-3" x1="330.48" y1="90.66" x2="330.48" y2="160.41" />
    <polyline class="cls-2" points="330.48 162.99 330.48 165.49 327.98 165.49" />
    <line class="cls-3" x1="322.81" y1="165.49" x2="253.07" y2="165.49" />
    <polyline class="cls-2" points="250.48 165.49 247.98 165.49 247.98 162.99" />
    <line class="cls-3" x1="247.98" y1="157.82" x2="247.98" y2="88.08" />
    <polyline class="cls-2" points="330.48 85.5 330.48 83 332.98 83" />
    <line class="cls-3" x1="338.14" y1="82.99" x2="407.89" y2="82.99" />
    <polyline class="cls-2" points="410.47 83 412.97 83 412.97 85.5" />
    <line class="cls-3" x1="412.97" y1="90.66" x2="412.97" y2="160.41" />
    <polyline class="cls-2" points="412.97 162.99 412.97 165.49 410.47 165.49" />
    <line class="cls-3" x1="405.31" y1="165.49" x2="335.56" y2="165.49" />
    <polyline class="cls-2" points="332.98 165.49 330.48 165.49 330.48 162.99" />
    <line class="cls-3" x1="330.48" y1="157.82" x2="330.48" y2="88.08" />
    <polyline class="cls-2" points="0.5 167.99 0.5 165.49 3 165.49" />
    <line class="cls-3" x1="8.17" y1="165.49" x2="77.91" y2="165.49" />
    <polyline class="cls-2" points="80.5 165.49 83 165.49 83 167.99" />
    <line class="cls-3" x1="82.99" y1="173.16" x2="82.99" y2="242.9" />
    <polyline class="cls-2" points="83 245.48 83 247.98 80.5 247.98" />
    <line class="cls-3" x1="75.33" y1="247.98" x2="5.58" y2="247.98" />
    <polyline class="cls-2" points="3 247.98 0.5 247.98 0.5 245.48" />
    <line class="cls-3" x1="0.5" y1="240.32" x2="0.5" y2="170.57" />
    <polyline class="cls-2" points="83 167.99 83 165.49 85.5 165.49" />
    <line class="cls-3" x1="90.66" y1="165.49" x2="160.41" y2="165.49" />
    <polyline class="cls-2" points="162.99 165.49 165.49 165.49 165.49 167.99" />
    <line class="cls-3" x1="165.49" y1="173.16" x2="165.49" y2="242.9" />
    <polyline class="cls-2" points="165.49 245.48 165.49 247.98 162.99 247.98" />
    <line class="cls-3" x1="157.82" y1="247.98" x2="88.08" y2="247.98" />
    <polyline class="cls-2" points="85.5 247.98 83 247.98 83 245.48" />
    <line class="cls-3" x1="82.99" y1="240.32" x2="82.99" y2="170.57" />
    <polyline class="cls-2" points="165.49 167.99 165.49 165.49 167.99 165.49" />
    <line class="cls-3" x1="173.16" y1="165.49" x2="242.9" y2="165.49" />
    <polyline class="cls-2" points="245.48 165.49 247.98 165.49 247.98 167.99" />
    <line class="cls-3" x1="247.98" y1="173.16" x2="247.98" y2="242.9" />
    <polyline class="cls-2" points="247.98 245.48 247.98 247.98 245.48 247.98" />
    <line class="cls-3" x1="240.32" y1="247.98" x2="170.57" y2="247.98" />
    <polyline class="cls-2" points="167.99 247.98 165.49 247.98 165.49 245.48" />
    <line class="cls-3" x1="165.49" y1="240.32" x2="165.49" y2="170.57" />
    <polyline class="cls-2" points="247.98 167.99 247.98 165.49 250.48 165.49" />
    <line class="cls-3" x1="255.65" y1="165.49" x2="325.39" y2="165.49" />
    <polyline class="cls-2" points="327.98 165.49 330.48 165.49 330.48 167.99" />
    <line class="cls-3" x1="330.48" y1="173.16" x2="330.48" y2="242.9" />
    <polyline class="cls-2" points="330.48 245.48 330.48 247.98 327.98 247.98" />
    <line class="cls-3" x1="322.81" y1="247.98" x2="253.07" y2="247.98" />
    <polyline class="cls-2" points="250.48 247.98 247.98 247.98 247.98 245.48" />
    <line class="cls-3" x1="247.98" y1="240.32" x2="247.98" y2="170.57" />
    <polyline class="cls-2" points="330.48 167.99 330.48 165.49 332.98 165.49" />
    <line class="cls-3" x1="338.14" y1="165.49" x2="407.89" y2="165.49" />
    <polyline class="cls-2" points="410.47 165.49 412.97 165.49 412.97 167.99" />
    <line class="cls-3" x1="412.97" y1="173.16" x2="412.97" y2="242.9" />
    <polyline class="cls-2" points="412.97 245.48 412.97 247.98 410.47 247.98" />
    <line class="cls-3" x1="405.31" y1="247.98" x2="335.56" y2="247.98" />
    <polyline class="cls-2" points="332.98 247.98 330.48 247.98 330.48 245.48" />
    <line class="cls-3" x1="330.48" y1="240.32" x2="330.48" y2="170.57" />
    <polyline class="cls-2" points="0.5 250.48 0.5 247.98 3 247.98" />
    <line class="cls-3" x1="8.17" y1="247.98" x2="77.91" y2="247.98" />
    <polyline class="cls-2" points="80.5 247.98 83 247.98 83 250.48" />
    <line class="cls-3" x1="82.99" y1="255.65" x2="82.99" y2="325.39" />
    <polyline class="cls-2" points="83 327.98 83 330.48 80.5 330.48" />
    <line class="cls-3" x1="75.33" y1="330.48" x2="5.58" y2="330.48" />
    <polyline class="cls-2" points="3 330.48 0.5 330.48 0.5 327.98" />
    <line class="cls-3" x1="0.5" y1="322.81" x2="0.5" y2="253.07" />
    <polyline class="cls-2" points="83 250.48 83 247.98 85.5 247.98" />
    <line class="cls-3" x1="90.66" y1="247.98" x2="160.41" y2="247.98" />
    <polyline class="cls-2" points="162.99 247.98 165.49 247.98 165.49 250.48" />
    <line class="cls-3" x1="165.49" y1="255.65" x2="165.49" y2="325.39" />
    <polyline class="cls-2" points="165.49 327.98 165.49 330.48 162.99 330.48" />
    <line class="cls-3" x1="157.82" y1="330.48" x2="88.08" y2="330.48" />
    <polyline class="cls-2" points="85.5 330.48 83 330.48 83 327.98" />
    <line class="cls-3" x1="82.99" y1="322.81" x2="82.99" y2="253.07" />
    <polyline class="cls-2" points="165.49 250.48 165.49 247.98 167.99 247.98" />
    <line class="cls-3" x1="173.16" y1="247.98" x2="242.9" y2="247.98" />
    <polyline class="cls-2" points="245.48 247.98 247.98 247.98 247.98 250.48" />
    <line class="cls-3" x1="247.98" y1="255.65" x2="247.98" y2="325.39" />
    <polyline class="cls-2" points="247.98 327.98 247.98 330.48 245.48 330.48" />
    <line class="cls-3" x1="240.32" y1="330.48" x2="170.57" y2="330.48" />
    <polyline class="cls-2" points="167.99 330.48 165.49 330.48 165.49 327.98" />
    <line class="cls-3" x1="165.49" y1="322.81" x2="165.49" y2="253.07" />
    <polyline class="cls-2" points="247.98 250.48 247.98 247.98 250.48 247.98" />
    <line class="cls-3" x1="255.65" y1="247.98" x2="325.39" y2="247.98" />
    <polyline class="cls-2" points="327.98 247.98 330.48 247.98 330.48 250.48" />
    <line class="cls-3" x1="330.48" y1="255.65" x2="330.48" y2="325.39" />
    <polyline class="cls-2" points="330.48 327.98 330.48 330.48 327.98 330.48" />
    <line class="cls-3" x1="322.81" y1="330.48" x2="253.07" y2="330.48" />
    <polyline class="cls-2" points="250.48 330.48 247.98 330.48 247.98 327.98" />
    <line class="cls-3" x1="247.98" y1="322.81" x2="247.98" y2="253.07" />
    <polyline class="cls-2" points="330.48 250.48 330.48 247.98 332.98 247.98" />
    <line class="cls-3" x1="338.14" y1="247.98" x2="407.89" y2="247.98" />
    <polyline class="cls-2" points="410.47 247.98 412.97 247.98 412.97 250.48" />
    <line class="cls-3" x1="412.97" y1="255.65" x2="412.97" y2="325.39" />
    <polyline class="cls-2" points="412.97 327.98 412.97 330.48 410.47 330.48" />
    <line class="cls-3" x1="405.31" y1="330.48" x2="335.56" y2="330.48" />
    <polyline class="cls-2" points="332.98 330.48 330.48 330.48 330.48 327.98" />
    <line class="cls-3" x1="330.48" y1="322.81" x2="330.48" y2="253.07" />
    <line class="cls-2" x1="42.63" y1="83.58" x2="42.63" y2="91.08" />
    <line class="cls-4" x1="42.63" y1="104.54" x2="42.63" y2="151.65" />
    <line class="cls-2" x1="42.63" y1="158.38" x2="42.63" y2="165.88" />
    <line class="cls-2" x1="1.48" y1="124.73" x2="8.98" y2="124.73" />
    <line class="cls-4" x1="22.44" y1="124.73" x2="69.55" y2="124.73" />
    <line class="cls-2" x1="76.28" y1="124.73" x2="83.78" y2="124.73" />
</svg>
