<svg id="Capa_1" data-name="Capa 1" xmlns="http://www.w3.org/2000/svg" viewBox="0 0 282.37 234.56"><defs><style>.cls-1{fill:#eeede0;}</style></defs><title>svgnegatius</title><circle class="cls-1" cx="176.19" cy="58.3" r="11.54"/><circle class="cls-1" cx="235.25" cy="46.69" r="11.54"/><circle class="cls-1" cx="211.52" cy="82.03" r="11.54"/><circle class="cls-1" cx="187.8" cy="117.77" r="11.54"/><circle class="cls-1" cx="246.86" cy="105.35" r="11.54"/><path class="cls-1" d="M434.38,355.08h0a79,79,0,0,0-13.86-26.18,66.65,66.65,0,0,0-22.69-17.85c-9-4.38-19.48-6.61-31.16-6.61s-22.17,2.23-31.16,6.61a66.55,66.55,0,0,0-22.69,17.85A78.59,78.59,0,0,0,299,355.08a104.6,104.6,0,0,0-4.73,31.64c0,.41.14,10.07.84,14.92a103.17,103.17,0,0,0,2.87,12.85c.38,1.38.73,2.67,1,3.8,2.13,8.88,6.54,17.21,13.88,26.23a65.35,65.35,0,0,0,22.7,17.74c.72.34,1.46.68,2.21,1l-109.86.19a60.29,60.29,0,0,1-27.81-6.27,64.18,64.18,0,0,1-20.67-16.66,72.89,72.89,0,0,1-12.79-24.06A93.84,93.84,0,0,1,162.26,388a102.67,102.67,0,0,1,3.59-25.85,79.67,79.67,0,0,1,11.6-25.26,65.73,65.73,0,0,1,21.11-19.27c8.68-5.09,19.5-7.68,32.15-7.68a63.49,63.49,0,0,1,21.52,3.52,3.07,3.07,0,0,0,3-.49,2.81,2.81,0,0,0-.82-4.82,70.51,70.51,0,0,0-23.68-3.73c-13.29,0-24.77,2.6-34.13,7.72A68.74,68.74,0,0,0,173.67,332a83,83,0,0,0-12.87,26.95A110.45,110.45,0,0,0,156.74,388,96.59,96.59,0,0,0,162,420.43,78,78,0,0,0,176.65,446a67.1,67.1,0,0,0,22.47,16.75,68,68,0,0,0,28.75,6.06l139.57-.06c1.2,0,2.2.06,3.16.06,11.62,0,18-2.1,27.22-6.5a65.44,65.44,0,0,0,22.7-17.74,78.9,78.9,0,0,0,13.86-26.19,108.09,108.09,0,0,0,0-63.25Zm-5.68,62.46a73.2,73.2,0,0,1-13.22,24.28,60.09,60.09,0,0,1-20.88,15.9,70.94,70.94,0,0,1-55.86,0,60,60,0,0,1-20.88-15.9,73,73,0,0,1-13.22-24.28,99.63,99.63,0,0,1,0-61.66,73,73,0,0,1,13.22-24.28,60.24,60.24,0,0,1,20.88-15.9,70.82,70.82,0,0,1,55.86,0,60.09,60.09,0,0,1,20.88,15.9,73.3,73.3,0,0,1,13.22,24.28,99.63,99.63,0,0,1,0,61.66Z" transform="translate(-156.74 -304.44)"/><path class="cls-1" d="M292.45,493.34a2.4,2.4,0,0,0-2.25-1.54h-.77a2.4,2.4,0,0,0-2.23,1.52l-16.78,42.12a2.42,2.42,0,0,0,2.24,3.3h.08a2.39,2.39,0,0,0,2.23-1.52L280,524.5h19.22l5,12.71a2.38,2.38,0,0,0,2.24,1.53h.08a2.42,2.42,0,0,0,2-1,2.4,2.4,0,0,0,.26-2.23Zm4.91,26.28H282l7.83-19.85Z" transform="translate(-156.74 -304.44)"/><path class="cls-1" d="M378.48,534.35a2.29,2.29,0,0,0-1-.21L360,534.2a14.72,14.72,0,0,1-6.83-1.53,15.8,15.8,0,0,1-5.11-4.11,18.18,18.18,0,0,1-3.19-6,23.75,23.75,0,0,1-1.11-7.26,26,26,0,0,1,.93-6.63,20,20,0,0,1,2.92-6.37,16.25,16.25,0,0,1,5.23-4.76,17.27,17.27,0,0,1,13.61-.87,2.38,2.38,0,0,0,2.61-.56,2.33,2.33,0,0,0,.5-2.59,2.78,2.78,0,0,0-1.59-1.53,23,23,0,0,0-17.32,1.13,20.55,20.55,0,0,0-6.81,5.9,24.42,24.42,0,0,0-3.77,7.9,31.59,31.59,0,0,0-1.17,8.38,28,28,0,0,0,1.54,9.41,23.08,23.08,0,0,0,4.31,7.51,19.9,19.9,0,0,0,6.7,5A20.19,20.19,0,0,0,360,539l17.53,0a2.43,2.43,0,0,0,1-4.63Z" transform="translate(-156.74 -304.44)"/><path class="cls-1" d="M411.38,498.08h0a20.11,20.11,0,0,0-6.76-5.32,22.68,22.68,0,0,0-18.49,0,19.92,19.92,0,0,0-6.76,5.33,23.09,23.09,0,0,0-4.08,7.7,30.21,30.21,0,0,0-1.37,9.16c0,.11,0,2.84.25,4.29A29,29,0,0,0,375,523c.1.35.19.68.25,1a20.83,20.83,0,0,0,10.89,13.12,22.93,22.93,0,0,0,18.46,0,19.55,19.55,0,0,0,6.78-5.3,23.17,23.17,0,0,0,4.08-7.7,31.14,31.14,0,0,0,0-18.27A23.32,23.32,0,0,0,411.38,498.08Zm-16,36.12a16.19,16.19,0,0,1-6.91-1.41,14.68,14.68,0,0,1-5.13-3.9,18.36,18.36,0,0,1-3.3-6.07A25.56,25.56,0,0,1,380,507a18.36,18.36,0,0,1,3.3-6.07,14.8,14.8,0,0,1,5.13-3.9,17.66,17.66,0,0,1,13.83,0,14.77,14.77,0,0,1,5.13,3.9,18.36,18.36,0,0,1,3.3,6.07,25.75,25.75,0,0,1,0,15.79,18.36,18.36,0,0,1-3.3,6.07,14.77,14.77,0,0,1-5.13,3.9A16.23,16.23,0,0,1,395.37,534.2Z" transform="translate(-156.74 -304.44)"/><path class="cls-1" d="M281.17,494V494a2.41,2.41,0,0,0-2.41-2.4H249.37A2.41,2.41,0,0,0,247,494V494a2.41,2.41,0,0,0,2.41,2.41h12.26v39.71a2.45,2.45,0,0,0,1.64,2.35,2.53,2.53,0,0,0,.77.12,2.37,2.37,0,0,0,1.42-.47,2.43,2.43,0,0,0,1-1.94V496.44h12.32A2.41,2.41,0,0,0,281.17,494Z" transform="translate(-156.74 -304.44)"/><path class="cls-1" d="M241,491.58h-.05A2.41,2.41,0,0,0,238.5,494v26.27c0,4.68-1,8.22-3.06,10.54s-5.18,3.39-9.53,3.39-7.56-1.14-9.54-3.39-3.06-5.86-3.06-10.54V494a2.39,2.39,0,0,0-1.86-2.35,2.72,2.72,0,0,0-.63-.08h-29.6a2.41,2.41,0,0,0-2.41,2.4V494a2.41,2.41,0,0,0,2.41,2.41h12.36v39.77a2.39,2.39,0,0,0,.86,1.84,2.45,2.45,0,0,0,2,.53,2.48,2.48,0,0,0,2-2.46V496.44h10v23.82c0,6.22,1.52,11,4.51,14s7.37,4.7,12.95,4.7,9.93-1.58,12.94-4.7,4.51-7.82,4.51-14V494A2.41,2.41,0,0,0,241,491.58Z" transform="translate(-156.74 -304.44)"/><path class="cls-1" d="M342.82,533.8H316.07V494a2.41,2.41,0,0,0-2.4-2.41h-.26A2.41,2.41,0,0,0,311,494v42.28a2.41,2.41,0,0,0,2.4,2.41h29.41a2.41,2.41,0,0,0,2.41-2.41v-.07A2.41,2.41,0,0,0,342.82,533.8Z" transform="translate(-156.74 -304.44)"/></svg>