<svg id="Capa_3" data-name="Capa 3" xmlns="http://www.w3.org/2000/svg" viewBox="0 0 456.12 134.86">
    <defs>
        <style>
            .cls-1 {
                fill: none;
                stroke: #282828;
                stroke-miterlimit: 10;
            }

            .cls-2 {
                fill: #1e5059;
            }

        </style>
    </defs>
    <title>tutalkoreticula2</title>
    <rect class="cls-1" x="0.5" y="0.5" width="26.77" height="26.77" />
    <rect class="cls-1" x="27.27" y="0.5" width="26.77" height="26.77" />
    <rect class="cls-1" x="54.04" y="0.5" width="26.77" height="26.77" />
    <rect class="cls-1" x="80.82" y="0.5" width="26.77" height="26.77" />
    <rect class="cls-1" x="107.59" y="0.5" width="26.77" height="26.77" />
    <rect class="cls-1" x="134.36" y="0.5" width="26.77" height="26.77" />
    <rect class="cls-1" x="161.13" y="0.5" width="26.77" height="26.77" />
    <rect class="cls-1" x="187.9" y="0.5" width="26.77" height="26.77" />
    <rect class="cls-1" x="214.67" y="0.5" width="26.77" height="26.77" />
    <rect class="cls-1" x="241.45" y="0.5" width="26.77" height="26.77" />
    <rect class="cls-1" x="268.22" y="0.5" width="26.77" height="26.77" />
    <rect class="cls-1" x="294.99" y="0.5" width="26.77" height="26.77" />
    <rect class="cls-1" x="321.76" y="0.5" width="26.77" height="26.77" />
    <rect class="cls-1" x="348.53" y="0.5" width="26.77" height="26.77" />
    <rect class="cls-1" x="375.31" y="0.5" width="26.77" height="26.77" />
    <rect class="cls-1" x="402.08" y="0.5" width="26.77" height="26.77" />
    <rect class="cls-1" x="428.85" y="0.5" width="26.77" height="26.77" />
    <rect class="cls-1" x="0.5" y="27.27" width="26.77" height="26.77" />
    <rect class="cls-1" x="27.27" y="27.27" width="26.77" height="26.77" />
    <rect class="cls-1" x="54.04" y="27.27" width="26.77" height="26.77" />
    <rect class="cls-1" x="80.82" y="27.27" width="26.77" height="26.77" />
    <rect class="cls-1" x="107.59" y="27.27" width="26.77" height="26.77" />
    <rect class="cls-1" x="134.36" y="27.27" width="26.77" height="26.77" />
    <rect class="cls-1" x="161.13" y="27.27" width="26.77" height="26.77" />
    <rect class="cls-1" x="187.9" y="27.27" width="26.77" height="26.77" />
    <rect class="cls-1" x="214.67" y="27.27" width="26.77" height="26.77" />
    <rect class="cls-1" x="241.45" y="27.27" width="26.77" height="26.77" />
    <rect class="cls-1" x="268.22" y="27.27" width="26.77" height="26.77" />
    <rect class="cls-1" x="294.99" y="27.27" width="26.77" height="26.77" />
    <rect class="cls-1" x="321.76" y="27.27" width="26.77" height="26.77" />
    <rect class="cls-1" x="348.53" y="27.27" width="26.77" height="26.77" />
    <rect class="cls-1" x="375.31" y="27.27" width="26.77" height="26.77" />
    <rect class="cls-1" x="402.08" y="27.27" width="26.77" height="26.77" />
    <rect class="cls-1" x="428.85" y="27.27" width="26.77" height="26.77" />
    <rect class="cls-1" x="0.5" y="54.04" width="26.77" height="26.77" />
    <rect class="cls-1" x="27.27" y="54.04" width="26.77" height="26.77" />
    <rect class="cls-1" x="54.04" y="54.04" width="26.77" height="26.77" />
    <rect class="cls-1" x="80.82" y="54.04" width="26.77" height="26.77" />
    <rect class="cls-1" x="107.59" y="54.04" width="26.77" height="26.77" />
    <rect class="cls-1" x="134.36" y="54.04" width="26.77" height="26.77" />
    <rect class="cls-1" x="161.13" y="54.04" width="26.77" height="26.77" />
    <rect class="cls-1" x="187.9" y="54.04" width="26.77" height="26.77" />
    <rect class="cls-1" x="214.67" y="54.04" width="26.77" height="26.77" />
    <rect class="cls-1" x="241.45" y="54.04" width="26.77" height="26.77" />
    <rect class="cls-1" x="268.22" y="54.04" width="26.77" height="26.77" />
    <rect class="cls-1" x="294.99" y="54.04" width="26.77" height="26.77" />
    <rect class="cls-1" x="321.76" y="54.04" width="26.77" height="26.77" />
    <rect class="cls-1" x="348.53" y="54.04" width="26.77" height="26.77" />
    <rect class="cls-1" x="375.31" y="54.04" width="26.77" height="26.77" />
    <rect class="cls-1" x="402.08" y="54.04" width="26.77" height="26.77" />
    <rect class="cls-1" x="428.85" y="54.04" width="26.77" height="26.77" />
    <rect class="cls-1" x="0.5" y="80.82" width="26.77" height="26.77" />
    <rect class="cls-1" x="27.27" y="80.82" width="26.77" height="26.77" />
    <rect class="cls-1" x="54.04" y="80.82" width="26.77" height="26.77" />
    <rect class="cls-1" x="80.82" y="80.82" width="26.77" height="26.77" />
    <rect class="cls-1" x="107.59" y="80.82" width="26.77" height="26.77" />
    <rect class="cls-1" x="134.36" y="80.82" width="26.77" height="26.77" />
    <rect class="cls-1" x="161.13" y="80.82" width="26.77" height="26.77" />
    <rect class="cls-1" x="187.9" y="80.82" width="26.77" height="26.77" />
    <rect class="cls-1" x="214.67" y="80.82" width="26.77" height="26.77" />
    <rect class="cls-1" x="241.45" y="80.82" width="26.77" height="26.77" />
    <rect class="cls-1" x="268.22" y="80.82" width="26.77" height="26.77" />
    <rect class="cls-1" x="294.99" y="80.82" width="26.77" height="26.77" />
    <rect class="cls-1" x="321.76" y="80.82" width="26.77" height="26.77" />
    <rect class="cls-1" x="348.53" y="80.82" width="26.77" height="26.77" />
    <rect class="cls-1" x="375.31" y="80.82" width="26.77" height="26.77" />
    <rect class="cls-1" x="402.08" y="80.82" width="26.77" height="26.77" />
    <rect class="cls-1" x="428.85" y="80.82" width="26.77" height="26.77" />
    <rect class="cls-1" x="0.5" y="107.59" width="26.77" height="26.77" />
    <rect class="cls-1" x="27.27" y="107.59" width="26.77" height="26.77" />
    <rect class="cls-1" x="54.04" y="107.59" width="26.77" height="26.77" />
    <rect class="cls-1" x="80.82" y="107.59" width="26.77" height="26.77" />
    <rect class="cls-1" x="107.59" y="107.59" width="26.77" height="26.77" />
    <rect class="cls-1" x="134.36" y="107.59" width="26.77" height="26.77" />
    <rect class="cls-1" x="161.13" y="107.59" width="26.77" height="26.77" />
    <rect class="cls-1" x="187.9" y="107.59" width="26.77" height="26.77" />
    <rect class="cls-1" x="214.67" y="107.59" width="26.77" height="26.77" />
    <rect class="cls-1" x="241.45" y="107.59" width="26.77" height="26.77" />
    <rect class="cls-1" x="268.22" y="107.59" width="26.77" height="26.77" />
    <rect class="cls-1" x="294.99" y="107.59" width="26.77" height="26.77" />
    <rect class="cls-1" x="321.76" y="107.59" width="26.77" height="26.77" />
    <rect class="cls-1" x="348.53" y="107.59" width="26.77" height="26.77" />
    <rect class="cls-1" x="375.31" y="107.59" width="26.77" height="26.77" />
    <rect class="cls-1" x="402.08" y="107.59" width="26.77" height="26.77" />
    <rect class="cls-1" x="428.85" y="107.59" width="26.77" height="26.77" />
    <path class="cls-2" d="M225,194.13a3.08,3.08,0,0,0-3.07-2.22h-1.31a3.19,3.19,0,0,0-3,2.06l-28.33,71.15L189,266v.49a3.25,3.25,0,0,0,3,3.12l.42,0a3.19,3.19,0,0,0,3-2l8.75-21.87h33.6l8.76,21.89a3.27,3.27,0,0,0,3,2l.85-.06.43-.18a3.18,3.18,0,0,0,1.75-1.74,3.13,3.13,0,0,0,0-2.42ZM206.85,239l15-38,13.64,37.91Z" transform="translate(-9.47 -162.71)" />
    <path class="cls-2" d="M436,215a38,38,0,0,0-6.75-12.78A32.08,32.08,0,0,0,418,193.42a37.3,37.3,0,0,0-30.41,0,32.16,32.16,0,0,0-11.18,8.79A37.84,37.84,0,0,0,369.67,215a49.32,49.32,0,0,0-2.28,15.2,65.54,65.54,0,0,0,.43,7.2,63.64,63.64,0,0,0,1.83,7.91,34.27,34.27,0,0,0,12.73,18.39l.48.15c-20.95,0-48.87,0-48.87,0a26.15,26.15,0,0,1-12.08-2.71,28.1,28.1,0,0,1-9-7.27,31.93,31.93,0,0,1-5.61-10.58,41.46,41.46,0,0,1-1.94-12.66A45.74,45.74,0,0,1,307,219.05a35.17,35.17,0,0,1,5.13-11.16,28.61,28.61,0,0,1,9.23-8.41c3.74-2.2,8.45-3.31,14-3.31a27.36,27.36,0,0,1,9.94,1.73l.09,0a3.1,3.1,0,0,0,4-4.06,3.76,3.76,0,0,0-2.15-2.08,38.28,38.28,0,0,0-28.7,1.88,33.85,33.85,0,0,0-11.27,9.76A40.6,40.6,0,0,0,301,216.57a53.12,53.12,0,0,0-2,14,46.85,46.85,0,0,0,2.56,15.71,38.43,38.43,0,0,0,7.16,12.48A33,33,0,0,0,334,270h0l68.34,0h1.88a2.91,2.91,0,0,0,.31,0,38.26,38.26,0,0,0,13.53-3.1,32.56,32.56,0,0,0,11.18-8.75A37.81,37.81,0,0,0,436,245.35,51.61,51.61,0,0,0,436,215Zm-6.41,28.81a31.5,31.5,0,0,1-5.74,10.51,25.83,25.83,0,0,1-8.91,6.77,30.74,30.74,0,0,1-24.15,0,26.11,26.11,0,0,1-8.94-6.77,31.45,31.45,0,0,1-5.71-10.55,43.86,43.86,0,0,1,0-27.19,31.42,31.42,0,0,1,5.7-10.51,25.43,25.43,0,0,1,8.91-6.77,30.69,30.69,0,0,1,24.15,0,25.56,25.56,0,0,1,8.94,6.78,31.54,31.54,0,0,1,5.75,10.45A44,44,0,0,1,429.57,243.82Z" transform="translate(-9.47 -162.71)" />
    <path class="cls-2" d="M394.5,222.7a4.58,4.58,0,1,0-4.58,4.58A4.58,4.58,0,0,0,394.5,222.7Z" transform="translate(-9.47 -162.71)" />
    <path class="cls-2" d="M415.18,215.8a4.58,4.58,0,1,0-4.58,4.58A4.59,4.59,0,0,0,415.18,215.8Z" transform="translate(-9.47 -162.71)" />
    <path class="cls-2" d="M403.7,225a4.58,4.58,0,1,0,4.59,4.58A4.58,4.58,0,0,0,403.7,225Z" transform="translate(-9.47 -162.71)" />
    <path class="cls-2" d="M396.81,238.79a4.58,4.58,0,1,0,4.58,4.58A4.59,4.59,0,0,0,396.81,238.79Z" transform="translate(-9.47 -162.71)" />
    <path class="cls-2" d="M417.49,231.9a4.58,4.58,0,1,0,4.58,4.58A4.59,4.59,0,0,0,417.49,231.9Z" transform="translate(-9.47 -162.71)" />
    <path class="cls-2" d="M205.88,197.94a3.26,3.26,0,0,0,3.21-3.38,3.13,3.13,0,0,0-3.26-3.06H156l-.5.06a3.1,3.1,0,0,0-2.49,3.3,3.22,3.22,0,0,0,3.22,3.22h21.35v68a3.37,3.37,0,0,0,3.23,3.22A3.27,3.27,0,0,0,184,266v-68.1Z" transform="translate(-9.47 -162.71)" />
    <path class="cls-2" d="M145,194.77a3.22,3.22,0,0,0-6.44,0v44.58a26.84,26.84,0,0,1-5.42,18.12,21.32,21.32,0,0,1-17,6.13,20.87,20.87,0,0,1-16.43-5.92,27.07,27.07,0,0,1-5.51-18.48V194.8a3.28,3.28,0,0,0-3.08-3.25H40.73a3.22,3.22,0,1,0,0,6.43H62.45v68.21a3.26,3.26,0,0,0,3.26,3.12,3.22,3.22,0,0,0,3.22-3.22v-68H87.62V239a32.41,32.41,0,0,0,7.47,23.42,28.15,28.15,0,0,0,21,7.59c.67.05,1.33.07,2,.07a28.57,28.57,0,0,0,19.61-7.88,32.17,32.17,0,0,0,7.27-23Z" transform="translate(-9.47 -162.71)" />
    <path class="cls-2" d="M305.49,262.92H263.6a.23.23,0,0,1-.23-.23V195a3.45,3.45,0,0,0-6.89,0v71.06a3.44,3.44,0,0,0,3.44,3.44h45.71v.09l.35-.12a3.14,3.14,0,0,0,2.72-3.33A3.22,3.22,0,0,0,305.49,262.92Z" transform="translate(-9.47 -162.71)" />
</svg>
